<svg width="205" height="59" viewBox="0 0 205 59" fill="none" xmlns="http://www.w3.org/2000/svg">
<rect width="205" height="59" rx="8" fill="#001B79"/>
<path d="M58.923 32.9H52.843L51.723 36H49.803L54.843 22.14H56.943L61.963 36H60.043L58.923 32.9ZM58.403 31.42L55.883 24.38L53.363 31.42H58.403ZM67.0795 22.06V36H65.2595V22.06H67.0795ZM79.5334 22.06V36H77.7134V22.06H79.5334ZM97.8753 22.16V36H96.0553V25.68L91.4553 36H90.1753L85.5553 25.66V36H83.7353V22.16H85.6953L90.8153 33.6L95.9353 22.16H97.8753ZM110.302 32.9H104.222L103.102 36H101.182L106.222 22.14H108.322L113.342 36H111.422L110.302 32.9ZM109.782 31.42L107.262 24.38L104.742 31.42H109.782ZM127.198 26.1C126.812 25.2867 126.252 24.66 125.518 24.22C124.785 23.7667 123.932 23.54 122.958 23.54C121.985 23.54 121.105 23.7667 120.318 24.22C119.545 24.66 118.932 25.3 118.478 26.14C118.038 26.9667 117.818 27.9267 117.818 29.02C117.818 30.1133 118.038 31.0733 118.478 31.9C118.932 32.7267 119.545 33.3667 120.318 33.82C121.105 34.26 121.985 34.48 122.958 34.48C124.318 34.48 125.438 34.0733 126.318 33.26C127.198 32.4467 127.712 31.3467 127.858 29.96H122.298V28.48H129.798V29.88C129.692 31.0267 129.332 32.08 128.718 33.04C128.105 33.9867 127.298 34.74 126.298 35.3C125.298 35.8467 124.185 36.12 122.958 36.12C121.665 36.12 120.485 35.82 119.418 35.22C118.352 34.6067 117.505 33.76 116.878 32.68C116.265 31.6 115.958 30.38 115.958 29.02C115.958 27.66 116.265 26.44 116.878 25.36C117.505 24.2667 118.352 23.42 119.418 22.82C120.485 22.2067 121.665 21.9 122.958 21.9C124.438 21.9 125.745 22.2667 126.878 23C128.025 23.7333 128.858 24.7667 129.378 26.1H127.198ZM135.125 23.54V28.2H140.205V29.7H135.125V34.5H140.805V36H133.305V22.04H140.805V23.54H135.125ZM149.079 36.14C148.159 36.14 147.332 35.98 146.599 35.66C145.879 35.3267 145.312 34.8733 144.899 34.3C144.485 33.7133 144.272 33.04 144.259 32.28H146.199C146.265 32.9333 146.532 33.4867 146.999 33.94C147.479 34.38 148.172 34.6 149.079 34.6C149.945 34.6 150.625 34.3867 151.119 33.96C151.625 33.52 151.879 32.96 151.879 32.28C151.879 31.7467 151.732 31.3133 151.439 30.98C151.145 30.6467 150.779 30.3933 150.339 30.22C149.899 30.0467 149.305 29.86 148.559 29.66C147.639 29.42 146.899 29.18 146.339 28.94C145.792 28.7 145.319 28.3267 144.919 27.82C144.532 27.3 144.339 26.6067 144.339 25.74C144.339 24.98 144.532 24.3067 144.919 23.72C145.305 23.1333 145.845 22.68 146.539 22.36C147.245 22.04 148.052 21.88 148.959 21.88C150.265 21.88 151.332 22.2067 152.159 22.86C152.999 23.5133 153.472 24.38 153.579 25.46H151.579C151.512 24.9267 151.232 24.46 150.739 24.06C150.245 23.6467 149.592 23.44 148.779 23.44C148.019 23.44 147.399 23.64 146.919 24.04C146.439 24.4267 146.199 24.9733 146.199 25.68C146.199 26.1867 146.339 26.6 146.619 26.92C146.912 27.24 147.265 27.4867 147.679 27.66C148.105 27.82 148.699 28.0067 149.459 28.22C150.379 28.4733 151.119 28.7267 151.679 28.98C152.239 29.22 152.719 29.6 153.119 30.12C153.519 30.6267 153.719 31.32 153.719 32.2C153.719 32.88 153.539 33.52 153.179 34.12C152.819 34.72 152.285 35.2067 151.579 35.58C150.872 35.9533 150.039 36.14 149.079 36.14Z" fill="white"/>
</svg>
