<svg width="205" height="59" viewBox="0 0 205 59" fill="none" xmlns="http://www.w3.org/2000/svg">
<rect width="205" height="59" rx="8" fill="#001B79"/>
<path d="M68.8316 32.9H62.7516L61.6316 36H59.7116L64.7516 22.14H66.8516L71.8716 36H69.9516L68.8316 32.9ZM68.3116 31.42L65.7916 24.38L63.2716 31.42H68.3116ZM76.9881 22.06V36H75.1681V22.06H76.9881ZM86.942 29.02C86.942 27.66 87.2487 26.44 87.862 25.36C88.4754 24.2667 89.3087 23.4133 90.362 22.8C91.4287 22.1867 92.6087 21.88 93.902 21.88C95.422 21.88 96.7487 22.2467 97.882 22.98C99.0154 23.7133 99.842 24.7533 100.362 26.1H98.182C97.7954 25.26 97.2354 24.6133 96.502 24.16C95.782 23.7067 94.9154 23.48 93.902 23.48C92.9287 23.48 92.0554 23.7067 91.282 24.16C90.5087 24.6133 89.902 25.26 89.462 26.1C89.022 26.9267 88.802 27.9 88.802 29.02C88.802 30.1267 89.022 31.1 89.462 31.94C89.902 32.7667 90.5087 33.4067 91.282 33.86C92.0554 34.3133 92.9287 34.54 93.902 34.54C94.9154 34.54 95.782 34.32 96.502 33.88C97.2354 33.4267 97.7954 32.78 98.182 31.94H100.362C99.842 33.2733 99.0154 34.3067 97.882 35.04C96.7487 35.76 95.422 36.12 93.902 36.12C92.6087 36.12 91.4287 35.82 90.362 35.22C89.3087 34.6067 88.4754 33.76 87.862 32.68C87.2487 31.6 86.942 30.38 86.942 29.02ZM110.491 36.14C109.198 36.14 108.018 35.84 106.951 35.24C105.885 34.6267 105.038 33.78 104.411 32.7C103.798 31.6067 103.491 30.38 103.491 29.02C103.491 27.66 103.798 26.44 104.411 25.36C105.038 24.2667 105.885 23.42 106.951 22.82C108.018 22.2067 109.198 21.9 110.491 21.9C111.798 21.9 112.985 22.2067 114.051 22.82C115.118 23.42 115.958 24.26 116.571 25.34C117.185 26.42 117.491 27.6467 117.491 29.02C117.491 30.3933 117.185 31.62 116.571 32.7C115.958 33.78 115.118 34.6267 114.051 35.24C112.985 35.84 111.798 36.14 110.491 36.14ZM110.491 34.56C111.465 34.56 112.338 34.3333 113.111 33.88C113.898 33.4267 114.511 32.78 114.951 31.94C115.405 31.1 115.631 30.1267 115.631 29.02C115.631 27.9 115.405 26.9267 114.951 26.1C114.511 25.26 113.905 24.6133 113.131 24.16C112.358 23.7067 111.478 23.48 110.491 23.48C109.505 23.48 108.625 23.7067 107.851 24.16C107.078 24.6133 106.465 25.26 106.011 26.1C105.571 26.9267 105.351 27.9 105.351 29.02C105.351 30.1267 105.571 31.1 106.011 31.94C106.465 32.78 107.078 33.4267 107.851 33.88C108.638 34.3333 109.518 34.56 110.491 34.56ZM125.334 22.06C126.854 22.06 128.167 22.3467 129.274 22.92C130.394 23.48 131.247 24.2867 131.834 25.34C132.434 26.3933 132.734 27.6333 132.734 29.06C132.734 30.4867 132.434 31.7267 131.834 32.78C131.247 33.82 130.394 34.62 129.274 35.18C128.167 35.7267 126.854 36 125.334 36H120.994V22.06H125.334ZM125.334 34.5C127.134 34.5 128.507 34.0267 129.454 33.08C130.401 32.12 130.874 30.78 130.874 29.06C130.874 27.3267 130.394 25.9733 129.434 25C128.487 24.0267 127.121 23.54 125.334 23.54H122.814V34.5H125.334ZM138.055 23.54V28.2H143.135V29.7H138.055V34.5H143.735V36H136.235V22.04H143.735V23.54H138.055Z" fill="white"/>
</svg>
