<svg width="205" height="59" viewBox="0 0 205 59" fill="none" xmlns="http://www.w3.org/2000/svg">
<rect width="205" height="59" rx="8" fill="#001B79"/>
<path d="M38.103 32.9H32.023L30.903 36H28.983L34.023 22.14H36.123L41.143 36H39.223L38.103 32.9ZM37.583 31.42L35.063 24.38L32.543 31.42H37.583ZM46.2596 22.06V36H44.4396V22.06H46.2596ZM68.4135 22.06L63.1535 36H61.0535L55.7935 22.06H57.7335L62.1135 34.08L66.4935 22.06H68.4135ZM77.8291 36.14C76.5358 36.14 75.3558 35.84 74.2891 35.24C73.2225 34.6267 72.3758 33.78 71.7491 32.7C71.1358 31.6067 70.8291 30.38 70.8291 29.02C70.8291 27.66 71.1358 26.44 71.7491 25.36C72.3758 24.2667 73.2225 23.42 74.2891 22.82C75.3558 22.2067 76.5358 21.9 77.8291 21.9C79.1358 21.9 80.3225 22.2067 81.3891 22.82C82.4558 23.42 83.2958 24.26 83.9091 25.34C84.5225 26.42 84.8291 27.6467 84.8291 29.02C84.8291 30.3933 84.5225 31.62 83.9091 32.7C83.2958 33.78 82.4558 34.6267 81.3891 35.24C80.3225 35.84 79.1358 36.14 77.8291 36.14ZM77.8291 34.56C78.8025 34.56 79.6758 34.3333 80.4491 33.88C81.2358 33.4267 81.8491 32.78 82.2891 31.94C82.7425 31.1 82.9691 30.1267 82.9691 29.02C82.9691 27.9 82.7425 26.9267 82.2891 26.1C81.8491 25.26 81.2425 24.6133 80.4691 24.16C79.6958 23.7067 78.8158 23.48 77.8291 23.48C76.8425 23.48 75.9625 23.7067 75.1891 24.16C74.4158 24.6133 73.8025 25.26 73.3491 26.1C72.9091 26.9267 72.6891 27.9 72.6891 29.02C72.6891 30.1267 72.9091 31.1 73.3491 31.94C73.8025 32.78 74.4158 33.4267 75.1891 33.88C75.9758 34.3333 76.8558 34.56 77.8291 34.56ZM90.1518 22.06V36H88.3318V22.06H90.1518ZM93.6737 29.02C93.6737 27.66 93.9803 26.44 94.5937 25.36C95.207 24.2667 96.0403 23.4133 97.0937 22.8C98.1603 22.1867 99.3403 21.88 100.634 21.88C102.154 21.88 103.48 22.2467 104.614 22.98C105.747 23.7133 106.574 24.7533 107.094 26.1H104.914C104.527 25.26 103.967 24.6133 103.234 24.16C102.514 23.7067 101.647 23.48 100.634 23.48C99.6603 23.48 98.787 23.7067 98.0137 24.16C97.2403 24.6133 96.6337 25.26 96.1937 26.1C95.7537 26.9267 95.5337 27.9 95.5337 29.02C95.5337 30.1267 95.7537 31.1 96.1937 31.94C96.6337 32.7667 97.2403 33.4067 98.0137 33.86C98.787 34.3133 99.6603 34.54 100.634 34.54C101.647 34.54 102.514 34.32 103.234 33.88C103.967 33.4267 104.527 32.78 104.914 31.94H107.094C106.574 33.2733 105.747 34.3067 104.614 35.04C103.48 35.76 102.154 36.12 100.634 36.12C99.3403 36.12 98.1603 35.82 97.0937 35.22C96.0403 34.6067 95.207 33.76 94.5937 32.68C93.9803 31.6 93.6737 30.38 93.6737 29.02ZM112.723 23.54V28.2H117.803V29.7H112.723V34.5H118.403V36H110.903V22.04H118.403V23.54H112.723ZM128.577 36.14C127.283 36.14 126.103 35.84 125.037 35.24C123.97 34.6267 123.123 33.78 122.497 32.7C121.883 31.6067 121.577 30.38 121.577 29.02C121.577 27.66 121.883 26.44 122.497 25.36C123.123 24.2667 123.97 23.42 125.037 22.82C126.103 22.2067 127.283 21.9 128.577 21.9C129.883 21.9 131.07 22.2067 132.137 22.82C133.203 23.42 134.043 24.26 134.657 25.34C135.27 26.42 135.577 27.6467 135.577 29.02C135.577 30.3933 135.27 31.62 134.657 32.7C134.043 33.78 133.203 34.6267 132.137 35.24C131.07 35.84 129.883 36.14 128.577 36.14ZM128.577 34.56C129.55 34.56 130.423 34.3333 131.197 33.88C131.983 33.4267 132.597 32.78 133.037 31.94C133.49 31.1 133.717 30.1267 133.717 29.02C133.717 27.9 133.49 26.9267 133.037 26.1C132.597 25.26 131.99 24.6133 131.217 24.16C130.443 23.7067 129.563 23.48 128.577 23.48C127.59 23.48 126.71 23.7067 125.937 24.16C125.163 24.6133 124.55 25.26 124.097 26.1C123.657 26.9267 123.437 27.9 123.437 29.02C123.437 30.1267 123.657 31.1 124.097 31.94C124.55 32.78 125.163 33.4267 125.937 33.88C126.723 34.3333 127.603 34.56 128.577 34.56ZM150.599 22.06L145.339 36H143.239L137.979 22.06H139.919L144.299 34.08L148.679 22.06H150.599ZM155.515 23.54V28.2H160.595V29.7H155.515V34.5H161.195V36H153.695V22.04H161.195V23.54H155.515ZM172.389 36L169.069 30.3H166.869V36H165.049V22.06H169.549C170.602 22.06 171.489 22.24 172.209 22.6C172.942 22.96 173.489 23.4467 173.849 24.06C174.209 24.6733 174.389 25.3733 174.389 26.16C174.389 27.12 174.109 27.9667 173.549 28.7C173.002 29.4333 172.176 29.92 171.069 30.16L174.569 36H172.389ZM166.869 28.84H169.549C170.536 28.84 171.276 28.6 171.769 28.12C172.262 27.6267 172.509 26.9733 172.509 26.16C172.509 25.3333 172.262 24.6933 171.769 24.24C171.289 23.7867 170.549 23.56 169.549 23.56H166.869V28.84Z" fill="white"/>
</svg>
