<svg width="205" height="59" viewBox="0 0 205 59" fill="none" xmlns="http://www.w3.org/2000/svg">
<rect width="205" height="59" rx="8" fill="#001B79"/>
<path d="M68.8842 36.14C67.5909 36.14 66.4109 35.84 65.3442 35.24C64.2776 34.6267 63.4309 33.78 62.8042 32.7C62.1909 31.6067 61.8842 30.38 61.8842 29.02C61.8842 27.66 62.1909 26.44 62.8042 25.36C63.4309 24.2667 64.2776 23.42 65.3442 22.82C66.4109 22.2067 67.5909 21.9 68.8842 21.9C70.1909 21.9 71.3776 22.2067 72.4442 22.82C73.5109 23.42 74.3509 24.26 74.9642 25.34C75.5776 26.42 75.8842 27.6467 75.8842 29.02C75.8842 30.3933 75.5776 31.62 74.9642 32.7C74.3509 33.78 73.5109 34.6267 72.4442 35.24C71.3776 35.84 70.1909 36.14 68.8842 36.14ZM68.8842 34.56C69.8576 34.56 70.7309 34.3333 71.5042 33.88C72.2909 33.4267 72.9042 32.78 73.3442 31.94C73.7976 31.1 74.0242 30.1267 74.0242 29.02C74.0242 27.9 73.7976 26.9267 73.3442 26.1C72.9042 25.26 72.2976 24.6133 71.5242 24.16C70.7509 23.7067 69.8709 23.48 68.8842 23.48C67.8976 23.48 67.0176 23.7067 66.2442 24.16C65.4709 24.6133 64.8576 25.26 64.4042 26.1C63.9642 26.9267 63.7442 27.9 63.7442 29.02C63.7442 30.1267 63.9642 31.1 64.4042 31.94C64.8576 32.78 65.4709 33.4267 66.2442 33.88C67.0309 34.3333 67.9109 34.56 68.8842 34.56ZM88.7069 26.14C88.7069 27.3 88.3069 28.2667 87.5069 29.04C86.7202 29.8 85.5135 30.18 83.8869 30.18H81.2069V36H79.3869V22.06H83.8869C85.4602 22.06 86.6535 22.44 87.4669 23.2C88.2935 23.96 88.7069 24.94 88.7069 26.14ZM83.8869 28.68C84.9002 28.68 85.6469 28.46 86.1269 28.02C86.6069 27.58 86.8469 26.9533 86.8469 26.14C86.8469 24.42 85.8602 23.56 83.8869 23.56H81.2069V28.68H83.8869ZM93.8889 23.54V28.2H98.9689V29.7H93.8889V34.5H99.5689V36H92.0689V22.04H99.5689V23.54H93.8889ZM114.383 36H112.563L105.243 24.9V36H103.423V22.04H105.243L112.563 33.12V22.04H114.383V36ZM133.257 32.9H127.177L126.057 36H124.137L129.177 22.14H131.277L136.297 36H134.377L133.257 32.9ZM132.737 31.42L130.217 24.38L127.697 31.42H132.737ZM141.414 22.06V36H139.594V22.06H141.414Z" fill="white"/>
</svg>
