<svg width="205" height="59" viewBox="0 0 205 59" fill="none" xmlns="http://www.w3.org/2000/svg">
<rect width="205" height="59" rx="8" fill="#001B79"/>
<path d="M74.1652 22.06C75.6852 22.06 76.9985 22.3467 78.1052 22.92C79.2252 23.48 80.0785 24.2867 80.6652 25.34C81.2652 26.3933 81.5652 27.6333 81.5652 29.06C81.5652 30.4867 81.2652 31.7267 80.6652 32.78C80.0785 33.82 79.2252 34.62 78.1052 35.18C76.9985 35.7267 75.6852 36 74.1652 36H69.8252V22.06H74.1652ZM74.1652 34.5C75.9652 34.5 77.3385 34.0267 78.2852 33.08C79.2318 32.12 79.7052 30.78 79.7052 29.06C79.7052 27.3267 79.2252 25.9733 78.2652 25C77.3185 24.0267 75.9518 23.54 74.1652 23.54H71.6452V34.5H74.1652ZM86.8858 23.54V28.2H91.9658V29.7H86.8858V34.5H92.5658V36H85.0658V22.04H92.5658V23.54H86.8858ZM98.2397 34.52H103.12V36H96.4197V22.06H98.2397V34.52ZM107.972 34.52H112.852V36H106.152V22.06H107.972V34.52ZM123.485 27.9V29.44H115.505V27.9H123.485ZM129.821 23.54V28.2H134.901V29.7H129.821V34.5H135.501V36H128.001V22.04H135.501V23.54H129.821Z" fill="white"/>
</svg>
