<svg width="205" height="59" viewBox="0 0 205 59" fill="none" xmlns="http://www.w3.org/2000/svg">
<rect width="205" height="59" rx="8" fill="#001B79"/>
<path d="M51.4764 36.14C50.5564 36.14 49.7297 35.98 48.9964 35.66C48.2764 35.3267 47.7097 34.8733 47.2964 34.3C46.8831 33.7133 46.6697 33.04 46.6564 32.28H48.5964C48.6631 32.9333 48.9297 33.4867 49.3964 33.94C49.8764 34.38 50.5697 34.6 51.4764 34.6C52.3431 34.6 53.0231 34.3867 53.5164 33.96C54.0231 33.52 54.2764 32.96 54.2764 32.28C54.2764 31.7467 54.1297 31.3133 53.8364 30.98C53.5431 30.6467 53.1764 30.3933 52.7364 30.22C52.2964 30.0467 51.7031 29.86 50.9564 29.66C50.0364 29.42 49.2964 29.18 48.7364 28.94C48.1897 28.7 47.7164 28.3267 47.3164 27.82C46.9297 27.3 46.7364 26.6067 46.7364 25.74C46.7364 24.98 46.9297 24.3067 47.3164 23.72C47.7031 23.1333 48.2431 22.68 48.9364 22.36C49.6431 22.04 50.4497 21.88 51.3564 21.88C52.6631 21.88 53.7297 22.2067 54.5564 22.86C55.3964 23.5133 55.8697 24.38 55.9764 25.46H53.9764C53.9097 24.9267 53.6297 24.46 53.1364 24.06C52.6431 23.6467 51.9897 23.44 51.1764 23.44C50.4164 23.44 49.7964 23.64 49.3164 24.04C48.8364 24.4267 48.5964 24.9733 48.5964 25.68C48.5964 26.1867 48.7364 26.6 49.0164 26.92C49.3097 27.24 49.6631 27.4867 50.0764 27.66C50.5031 27.82 51.0964 28.0067 51.8564 28.22C52.7764 28.4733 53.5164 28.7267 54.0764 28.98C54.6364 29.22 55.1164 29.6 55.5164 30.12C55.9164 30.6267 56.1164 31.32 56.1164 32.2C56.1164 32.88 55.9364 33.52 55.5764 34.12C55.2164 34.72 54.6831 35.2067 53.9764 35.58C53.2697 35.9533 52.4364 36.14 51.4764 36.14ZM61.7147 23.54V28.2H66.7947V29.7H61.7147V34.5H67.3947V36H59.8947V22.04H67.3947V23.54H61.7147ZM77.5686 36.14C76.2753 36.14 75.0953 35.84 74.0286 35.24C72.9619 34.6267 72.1153 33.78 71.4886 32.7C70.8753 31.6067 70.5686 30.38 70.5686 29.02C70.5686 27.66 70.8753 26.44 71.4886 25.36C72.1153 24.2667 72.9619 23.42 74.0286 22.82C75.0953 22.2067 76.2753 21.9 77.5686 21.9C78.8753 21.9 80.0619 22.2067 81.1286 22.82C82.1953 23.42 83.0353 24.26 83.6486 25.34C84.2619 26.42 84.5686 27.6467 84.5686 29.02C84.5686 30.3933 84.2619 31.62 83.6486 32.7C83.0353 33.78 82.1953 34.6267 81.1286 35.24C80.0619 35.84 78.8753 36.14 77.5686 36.14ZM77.5686 34.56C78.5419 34.56 79.4153 34.3333 80.1886 33.88C80.9753 33.4267 81.5886 32.78 82.0286 31.94C82.4819 31.1 82.7086 30.1267 82.7086 29.02C82.7086 27.9 82.4819 26.9267 82.0286 26.1C81.5886 25.26 80.9819 24.6133 80.2086 24.16C79.4353 23.7067 78.5553 23.48 77.5686 23.48C76.5819 23.48 75.7019 23.7067 74.9286 24.16C74.1553 24.6133 73.5419 25.26 73.0886 26.1C72.6486 26.9267 72.4286 27.9 72.4286 29.02C72.4286 30.1267 72.6486 31.1 73.0886 31.94C73.5419 32.78 74.1553 33.4267 74.9286 33.88C75.7153 34.3333 76.5953 34.56 77.5686 34.56ZM103.083 22.06V23.54H99.2833V36H97.4633V23.54H93.6433V22.06H103.083ZM112.744 36.14C111.45 36.14 110.27 35.84 109.204 35.24C108.137 34.6267 107.29 33.78 106.664 32.7C106.05 31.6067 105.744 30.38 105.744 29.02C105.744 27.66 106.05 26.44 106.664 25.36C107.29 24.2667 108.137 23.42 109.204 22.82C110.27 22.2067 111.45 21.9 112.744 21.9C114.05 21.9 115.237 22.2067 116.304 22.82C117.37 23.42 118.21 24.26 118.824 25.34C119.437 26.42 119.744 27.6467 119.744 29.02C119.744 30.3933 119.437 31.62 118.824 32.7C118.21 33.78 117.37 34.6267 116.304 35.24C115.237 35.84 114.05 36.14 112.744 36.14ZM112.744 34.56C113.717 34.56 114.59 34.3333 115.364 33.88C116.15 33.4267 116.764 32.78 117.204 31.94C117.657 31.1 117.884 30.1267 117.884 29.02C117.884 27.9 117.657 26.9267 117.204 26.1C116.764 25.26 116.157 24.6133 115.384 24.16C114.61 23.7067 113.73 23.48 112.744 23.48C111.757 23.48 110.877 23.7067 110.104 24.16C109.33 24.6133 108.717 25.26 108.264 26.1C107.824 26.9267 107.604 27.9 107.604 29.02C107.604 30.1267 107.824 31.1 108.264 31.94C108.717 32.78 109.33 33.4267 110.104 33.88C110.89 34.3333 111.77 34.56 112.744 34.56ZM129.566 36.14C128.273 36.14 127.093 35.84 126.026 35.24C124.96 34.6267 124.113 33.78 123.486 32.7C122.873 31.6067 122.566 30.38 122.566 29.02C122.566 27.66 122.873 26.44 123.486 25.36C124.113 24.2667 124.96 23.42 126.026 22.82C127.093 22.2067 128.273 21.9 129.566 21.9C130.873 21.9 132.06 22.2067 133.126 22.82C134.193 23.42 135.033 24.26 135.646 25.34C136.26 26.42 136.566 27.6467 136.566 29.02C136.566 30.3933 136.26 31.62 135.646 32.7C135.033 33.78 134.193 34.6267 133.126 35.24C132.06 35.84 130.873 36.14 129.566 36.14ZM129.566 34.56C130.54 34.56 131.413 34.3333 132.186 33.88C132.973 33.4267 133.586 32.78 134.026 31.94C134.48 31.1 134.706 30.1267 134.706 29.02C134.706 27.9 134.48 26.9267 134.026 26.1C133.586 25.26 132.98 24.6133 132.206 24.16C131.433 23.7067 130.553 23.48 129.566 23.48C128.58 23.48 127.7 23.7067 126.926 24.16C126.153 24.6133 125.54 25.26 125.086 26.1C124.646 26.9267 124.426 27.9 124.426 29.02C124.426 30.1267 124.646 31.1 125.086 31.94C125.54 32.78 126.153 33.4267 126.926 33.88C127.713 34.3333 128.593 34.56 129.566 34.56ZM141.889 34.52H146.769V36H140.069V22.06H141.889V34.52ZM154.222 36.14C153.302 36.14 152.475 35.98 151.742 35.66C151.022 35.3267 150.455 34.8733 150.042 34.3C149.628 33.7133 149.415 33.04 149.402 32.28H151.342C151.408 32.9333 151.675 33.4867 152.142 33.94C152.622 34.38 153.315 34.6 154.222 34.6C155.088 34.6 155.768 34.3867 156.262 33.96C156.768 33.52 157.022 32.96 157.022 32.28C157.022 31.7467 156.875 31.3133 156.582 30.98C156.288 30.6467 155.922 30.3933 155.482 30.22C155.042 30.0467 154.448 29.86 153.702 29.66C152.782 29.42 152.042 29.18 151.482 28.94C150.935 28.7 150.462 28.3267 150.062 27.82C149.675 27.3 149.482 26.6067 149.482 25.74C149.482 24.98 149.675 24.3067 150.062 23.72C150.448 23.1333 150.988 22.68 151.682 22.36C152.388 22.04 153.195 21.88 154.102 21.88C155.408 21.88 156.475 22.2067 157.302 22.86C158.142 23.5133 158.615 24.38 158.722 25.46H156.722C156.655 24.9267 156.375 24.46 155.882 24.06C155.388 23.6467 154.735 23.44 153.922 23.44C153.162 23.44 152.542 23.64 152.062 24.04C151.582 24.4267 151.342 24.9733 151.342 25.68C151.342 26.1867 151.482 26.6 151.762 26.92C152.055 27.24 152.408 27.4867 152.822 27.66C153.248 27.82 153.842 28.0067 154.602 28.22C155.522 28.4733 156.262 28.7267 156.822 28.98C157.382 29.22 157.862 29.6 158.262 30.12C158.662 30.6267 158.862 31.32 158.862 32.2C158.862 32.88 158.682 33.52 158.322 34.12C157.962 34.72 157.428 35.2067 156.722 35.58C156.015 35.9533 155.182 36.14 154.222 36.14Z" fill="white"/>
</svg>
