<svg width="205" height="59" viewBox="0 0 205 59" fill="none" xmlns="http://www.w3.org/2000/svg">
<rect width="205" height="59" rx="8" fill="#001B79"/>
<path d="M23.9858 36.14C23.0658 36.14 22.2391 35.98 21.5058 35.66C20.7858 35.3267 20.2191 34.8733 19.8058 34.3C19.3924 33.7133 19.1791 33.04 19.1658 32.28H21.1058C21.1724 32.9333 21.4391 33.4867 21.9058 33.94C22.3858 34.38 23.0791 34.6 23.9858 34.6C24.8524 34.6 25.5324 34.3867 26.0258 33.96C26.5324 33.52 26.7858 32.96 26.7858 32.28C26.7858 31.7467 26.6391 31.3133 26.3458 30.98C26.0524 30.6467 25.6858 30.3933 25.2458 30.22C24.8058 30.0467 24.2124 29.86 23.4658 29.66C22.5458 29.42 21.8058 29.18 21.2458 28.94C20.6991 28.7 20.2258 28.3267 19.8258 27.82C19.4391 27.3 19.2458 26.6067 19.2458 25.74C19.2458 24.98 19.4391 24.3067 19.8258 23.72C20.2124 23.1333 20.7524 22.68 21.4458 22.36C22.1524 22.04 22.9591 21.88 23.8658 21.88C25.1724 21.88 26.2391 22.2067 27.0658 22.86C27.9058 23.5133 28.3791 24.38 28.4858 25.46H26.4858C26.4191 24.9267 26.1391 24.46 25.6458 24.06C25.1524 23.6467 24.4991 23.44 23.6858 23.44C22.9258 23.44 22.3058 23.64 21.8258 24.04C21.3458 24.4267 21.1058 24.9733 21.1058 25.68C21.1058 26.1867 21.2458 26.6 21.5258 26.92C21.8191 27.24 22.1724 27.4867 22.5858 27.66C23.0124 27.82 23.6058 28.0067 24.3658 28.22C25.2858 28.4733 26.0258 28.7267 26.5858 28.98C27.1458 29.22 27.6258 29.6 28.0258 30.12C28.4258 30.6267 28.6258 31.32 28.6258 32.2C28.6258 32.88 28.4458 33.52 28.0858 34.12C27.7258 34.72 27.1924 35.2067 26.4858 35.58C25.7791 35.9533 24.9458 36.14 23.9858 36.14ZM41.7241 26.14C41.7241 27.3 41.3241 28.2667 40.5241 29.04C39.7374 29.8 38.5307 30.18 36.9041 30.18H34.2241V36H32.4041V22.06H36.9041C38.4774 22.06 39.6707 22.44 40.4841 23.2C41.3107 23.96 41.7241 24.94 41.7241 26.14ZM36.9041 28.68C37.9174 28.68 38.6641 28.46 39.1441 28.02C39.6241 27.58 39.8641 26.9533 39.8641 26.14C39.8641 24.42 38.8774 23.56 36.9041 23.56H34.2241V28.68H36.9041ZM46.9061 23.54V28.2H51.9861V29.7H46.9061V34.5H52.5861V36H45.0861V22.04H52.5861V23.54H46.9061ZM58.26 23.54V28.2H63.34V29.7H58.26V34.5H63.94V36H56.44V22.04H63.94V23.54H58.26ZM67.1139 29.02C67.1139 27.66 67.4206 26.44 68.0339 25.36C68.6472 24.2667 69.4806 23.4133 70.5339 22.8C71.6006 22.1867 72.7806 21.88 74.0739 21.88C75.5939 21.88 76.9206 22.2467 78.0539 22.98C79.1872 23.7133 80.0139 24.7533 80.5339 26.1H78.3539C77.9672 25.26 77.4072 24.6133 76.6739 24.16C75.9539 23.7067 75.0872 23.48 74.0739 23.48C73.1006 23.48 72.2272 23.7067 71.4539 24.16C70.6806 24.6133 70.0739 25.26 69.6339 26.1C69.1939 26.9267 68.9739 27.9 68.9739 29.02C68.9739 30.1267 69.1939 31.1 69.6339 31.94C70.0739 32.7667 70.6806 33.4067 71.4539 33.86C72.2272 34.3133 73.1006 34.54 74.0739 34.54C75.0872 34.54 75.9539 34.32 76.6739 33.88C77.4072 33.4267 77.9672 32.78 78.3539 31.94H80.5339C80.0139 33.2733 79.1872 34.3067 78.0539 35.04C76.9206 35.76 75.5939 36.12 74.0739 36.12C72.7806 36.12 71.6006 35.82 70.5339 35.22C69.4806 34.6067 68.6472 33.76 68.0339 32.68C67.4206 31.6 67.1139 30.38 67.1139 29.02ZM95.0831 22.06V36H93.2631V29.68H86.1631V36H84.3431V22.06H86.1631V28.18H93.2631V22.06H95.0831ZM114.303 22.06V23.54H110.503V36H108.683V23.54H104.863V22.06H114.303ZM123.963 36.14C122.67 36.14 121.49 35.84 120.423 35.24C119.356 34.6267 118.51 33.78 117.883 32.7C117.27 31.6067 116.963 30.38 116.963 29.02C116.963 27.66 117.27 26.44 117.883 25.36C118.51 24.2667 119.356 23.42 120.423 22.82C121.49 22.2067 122.67 21.9 123.963 21.9C125.27 21.9 126.456 22.2067 127.523 22.82C128.59 23.42 129.43 24.26 130.043 25.34C130.656 26.42 130.963 27.6467 130.963 29.02C130.963 30.3933 130.656 31.62 130.043 32.7C129.43 33.78 128.59 34.6267 127.523 35.24C126.456 35.84 125.27 36.14 123.963 36.14ZM123.963 34.56C124.936 34.56 125.81 34.3333 126.583 33.88C127.37 33.4267 127.983 32.78 128.423 31.94C128.876 31.1 129.103 30.1267 129.103 29.02C129.103 27.9 128.876 26.9267 128.423 26.1C127.983 25.26 127.376 24.6133 126.603 24.16C125.83 23.7067 124.95 23.48 123.963 23.48C122.976 23.48 122.096 23.7067 121.323 24.16C120.55 24.6133 119.936 25.26 119.483 26.1C119.043 26.9267 118.823 27.9 118.823 29.02C118.823 30.1267 119.043 31.1 119.483 31.94C119.936 32.78 120.55 33.4267 121.323 33.88C122.11 34.3333 122.99 34.56 123.963 34.56ZM149.478 22.06V23.54H145.678V36H143.858V23.54H140.038V22.06H149.478ZM154.638 23.54V28.2H159.718V29.7H154.638V34.5H160.318V36H152.818V22.04H160.318V23.54H154.638ZM169.872 29.04L174.152 36H172.092L168.752 30.56L165.572 36H163.552L167.812 29.04L163.532 22.06H165.572L168.932 27.52L172.132 22.06H174.172L169.872 29.04ZM186.274 22.06V23.54H182.474V36H180.654V23.54H176.834V22.06H186.274Z" fill="white"/>
</svg>
