<svg width="19" height="19" viewBox="0 0 19 19" fill="none" xmlns="http://www.w3.org/2000/svg">
<g id="ai-svgrepo-com 1">
<g id="Page-1">
<g id="icon">
<path id="Combined-Shape" fill-rule="evenodd" clip-rule="evenodd" d="M13.7857 5.12855V13.8714H5.04283V5.12855H13.7857ZM8.72266 7.31427H7.87121L6.25467 11.6857H7.02284L7.32803 10.8311H9.26314L9.56178 11.6857H10.3762L8.72266 7.31427ZM11.7398 7.31427H10.9747V11.6857H11.7398V7.31427ZM8.29049 8.04769L9.05256 10.2285H7.54052L8.29049 8.04769ZM14.5143 11.6857H15.9714V13.1428H14.5143V11.6857ZM5.7714 14.6H7.22855V16.0571H5.7714V14.6ZM8.68569 14.6H10.1428V16.0571H8.68569V14.6ZM5.7714 2.94284H7.22855V4.39998H5.7714V2.94284ZM11.6 14.6H13.0571V16.0571H11.6V14.6ZM8.68569 2.94284H10.1428V4.39998H8.68569V2.94284ZM11.6 2.94284H13.0571V4.39998H11.6V2.94284ZM14.5143 8.77141H15.9714V10.2286H14.5143V8.77141ZM2.85712 11.6857H4.31426V13.1428H2.85712V11.6857ZM14.5143 5.85713H15.9714V7.31427H14.5143V5.85713ZM2.85712 8.77141H4.31426V10.2286H2.85712V8.77141ZM2.85712 5.85713H4.31426V7.31427H2.85712V5.85713Z" fill="#001B79"/>
</g>
</g>
</g>
</svg>
