<svg width="165" height="165" viewBox="0 0 165 165" fill="none" xmlns="http://www.w3.org/2000/svg">
<g id="Container">
<path id="Ellipse" d="M165 82.5C165 128.063 128.063 165 82.5 165C36.9365 165 0 128.063 0 82.5C0 36.9365 36.9365 0 82.5 0C128.063 0 165 36.9365 165 82.5ZM16.5 82.5C16.5 118.951 46.0492 148.5 82.5 148.5C118.951 148.5 148.5 118.951 148.5 82.5C148.5 46.0492 118.951 16.5 82.5 16.5C46.0492 16.5 16.5 46.0492 16.5 82.5Z" fill="#F5F5F5"/>
<path id="Ellipse_2" d="M82.5 0C97.7148 1.81435e-07 112.633 4.20745 125.606 12.1572C138.579 20.1069 149.101 31.4893 156.008 45.0458C162.915 58.6023 165.939 73.8049 164.746 88.9729C163.552 104.141 158.187 118.683 149.244 130.992C140.301 143.301 128.128 152.898 114.071 158.72C100.015 164.543 84.6217 166.364 69.5942 163.984C54.5666 161.604 40.49 155.115 28.9205 145.233C17.3511 135.352 8.73949 122.464 4.03784 107.994L19.7303 102.895C23.4916 114.471 30.3809 124.782 39.6364 132.687C48.892 140.592 60.1533 145.783 72.1753 147.687C84.1973 149.592 96.5118 148.134 107.757 143.476C119.002 138.818 128.741 131.141 135.895 121.294C143.05 111.447 147.342 99.8127 148.297 87.6783C149.252 75.5439 146.832 63.3818 141.306 52.5366C135.781 41.6914 127.363 32.5855 116.985 26.2257C106.607 19.866 94.6719 16.5 82.5 16.5V0Z" fill="url(#paint0_linear_1013_603)"/>
</g>
<defs>
<linearGradient id="paint0_linear_1013_603" x1="-2.7776e-07" y1="83.2857" x2="165" y2="83.2857" gradientUnits="userSpaceOnUse">
<stop stop-color="#ED5AB3"/>
<stop offset="0.526042" stop-color="#A855F7"/>
<stop offset="1" stop-color="#001B79"/>
</linearGradient>
</defs>
</svg>
