<svg width="24" height="24" viewBox="0 0 24 24" fill="none" xmlns="http://www.w3.org/2000/svg">
<g id="glowing-star-svgrepo-com 1" clip-path="url(#clip0_1651_892)">
<g id="Group">
<path id="Vector" d="M6.83641 6.90183L4.18516 5.20308C4.13171 5.17032 4.08638 5.12587 4.05257 5.07308C4.01877 5.02029 3.99736 4.96052 3.98996 4.89827C3.98256 4.83602 3.98937 4.7729 4.00986 4.71366C4.03035 4.65441 4.06401 4.60058 4.10829 4.5562L5.10391 3.56058C5.29516 3.36933 5.61766 3.41058 5.75454 3.64495L7.41204 6.33933C7.62954 6.71058 7.20391 7.12683 6.83641 6.90183Z" fill="#FFC107"/>
<path id="Vector_2" d="M4.51884 15.0731L1.44009 15.135C1.37749 15.1363 1.31601 15.1519 1.26027 15.1804C1.20453 15.2089 1.15597 15.2497 1.11826 15.2997C1.08055 15.3497 1.05465 15.4076 1.04252 15.469C1.03039 15.5304 1.03234 15.5938 1.04822 15.6544L1.40634 17.0156C1.47572 17.2781 1.77384 17.4037 2.01009 17.2725L4.73072 15.8494C5.10572 15.6375 4.95009 15.0637 4.51884 15.0731Z" fill="#FFC107"/>
<path id="Vector_3" d="M11.6701 20.3024L10.9951 23.3006C10.9332 23.5612 11.1301 23.8124 11.3982 23.8124H12.8063C13.0782 23.8124 13.2751 23.5556 13.2076 23.2931L12.4745 20.2949C12.3657 19.8768 11.7713 19.8824 11.6701 20.3024Z" fill="#FFC107"/>
<path id="Vector_4" d="M17.1638 6.90183L19.8151 5.20308C20.0438 5.06245 20.0813 4.74558 19.8919 4.5562L18.8963 3.56058C18.8514 3.51588 18.7969 3.48206 18.7369 3.4617C18.677 3.44134 18.6131 3.435 18.5503 3.44314C18.4875 3.45129 18.4274 3.47371 18.3746 3.50869C18.3218 3.54368 18.2777 3.59029 18.2457 3.64495L16.5882 6.33933C16.3707 6.71058 16.7963 7.12683 17.1638 6.90183Z" fill="#FFC107"/>
<path id="Vector_5" d="M19.4812 15.0731L22.56 15.135C22.6226 15.1363 22.6841 15.1519 22.7398 15.1804C22.7956 15.2089 22.8441 15.2497 22.8818 15.2997C22.9195 15.3497 22.9454 15.4076 22.9576 15.469C22.9697 15.5304 22.9678 15.5938 22.9519 15.6544L22.5937 17.0156C22.5775 17.0768 22.5476 17.1335 22.5061 17.1813C22.4647 17.2291 22.4129 17.2669 22.3547 17.2916C22.2964 17.3164 22.2333 17.3276 22.1701 17.3243C22.1069 17.3209 22.0453 17.3032 21.99 17.2725L19.2694 15.8494C18.8944 15.6375 19.05 15.0637 19.4812 15.0731Z" fill="#FFC107"/>
</g>
<path id="Vector_6" d="M12.7593 1.35563L15.2831 7.11188C15.378 7.32851 15.5293 7.51569 15.7213 7.65388C15.9132 7.79207 16.1388 7.8762 16.3743 7.8975L22.5224 8.44875C23.2181 8.55 23.4956 9.40312 22.9912 9.89437L18.3599 13.785C17.9849 14.1 17.8143 14.595 17.9174 15.0731L19.2637 21.375C19.3818 22.0669 18.6562 22.5956 18.0337 22.2675L12.6674 19.125C12.465 19.0062 12.2346 18.9436 11.9999 18.9436C11.7653 18.9436 11.5348 19.0062 11.3324 19.125L5.96619 22.2656C5.34557 22.5919 4.61807 22.065 4.73619 21.3731L6.08244 15.0712C6.18369 14.5931 6.01494 14.0981 5.63994 13.7831L1.00682 9.89625C0.504316 9.40687 0.781816 8.55188 1.47557 8.45062L7.62369 7.89937C7.85925 7.87808 8.08477 7.79395 8.27672 7.65576C8.46867 7.51756 8.62001 7.33038 8.71494 7.11375L11.2387 1.3575C11.5518 0.7275 12.4481 0.7275 12.7593 1.35563Z" fill="#FDD835"/>
<path id="Vector_7" d="M12.5756 7.45696L12.1481 3.21571C12.1312 2.97946 12.0825 2.57446 12.4612 2.57446C12.7612 2.57446 12.9243 3.19884 12.9243 3.19884L14.2068 6.60384C14.6906 7.89946 14.4918 8.34384 14.025 8.60634C13.4887 8.90634 12.6975 8.67196 12.5756 7.45696Z" fill="#FFFF8D"/>
<path id="Vector_8" d="M17.8651 13.4081L21.5438 10.5375C21.7257 10.3856 22.0538 10.1438 21.7913 9.86813C21.5832 9.65063 21.0207 9.96376 21.0207 9.96376L17.8013 11.2219C16.8413 11.5538 16.2038 12.045 16.1476 12.6638C16.0744 13.4888 16.8151 14.1244 17.8651 13.4081Z" fill="#F4B400"/>
</g>
<defs>
<clipPath id="clip0_1651_892">
<rect width="24" height="24" fill="white"/>
</clipPath>
</defs>
</svg>
