<svg width="20" height="20" viewBox="0 0 20 20" fill="none" xmlns="http://www.w3.org/2000/svg">
<g id="Haruki Icons">
<g id="Union">
<path d="M8.54167 10.8333C8.54167 10.0279 9.19458 9.37499 10 9.37499C10.8054 9.37499 11.4583 10.0279 11.4583 10.8333C11.4583 11.4151 11.1177 11.9173 10.625 12.1513V13.3333C10.625 13.6785 10.3452 13.9583 10 13.9583C9.65482 13.9583 9.375 13.6785 9.375 13.3333V12.1513C8.8823 11.9173 8.54167 11.4151 8.54167 10.8333Z" fill="#0D0B4E"/>
<path fill-rule="evenodd" clip-rule="evenodd" d="M6.61178 2.4451C7.51039 1.54649 8.72917 1.04166 10 1.04166C11.2708 1.04166 12.4896 1.54649 13.3882 2.4451C14.2868 3.34372 14.7917 4.56249 14.7917 5.83332C14.7917 5.89135 14.7838 5.94753 14.769 6.00084C16.7691 7.09835 18.125 9.22416 18.125 11.6667C18.125 15.2335 15.2335 18.125 11.6667 18.125H8.33333C4.76649 18.125 1.875 15.2335 1.875 11.6667C1.875 9.22416 3.23089 7.09835 5.23104 6.00084C5.21624 5.94753 5.20833 5.89135 5.20833 5.83332C5.20833 4.56249 5.71317 3.34371 6.61178 2.4451ZM12.5043 3.32899C13.0846 3.90922 13.4427 4.67006 13.5239 5.47937C12.9357 5.30305 12.3123 5.20832 11.6667 5.20832H8.33333C7.68773 5.20832 7.06426 5.30305 6.47605 5.47937C6.55732 4.67006 6.91543 3.90922 7.49566 3.32899C8.15985 2.6648 9.06069 2.29166 10 2.29166C10.9393 2.29166 11.8401 2.6648 12.5043 3.32899ZM8.33333 6.45832C5.45685 6.45832 3.125 8.79017 3.125 11.6667C3.125 14.5431 5.45685 16.875 8.33333 16.875H11.6667C14.5431 16.875 16.875 14.5431 16.875 11.6667C16.875 8.79017 14.5431 6.45832 11.6667 6.45832H8.33333Z" fill="#0D0B4E"/>
</g>
</g>
</svg>
