<svg width="21" height="20" viewBox="0 0 21 20" fill="none" xmlns="http://www.w3.org/2000/svg">
<g id="curved / image-1">
<path id="shape" d="M3.90962 14.6099C4.92005 16.4295 6.93767 17.0833 10.5 17.0833C15.4223 17.0833 17.3953 15.835 17.8371 11.9877M3.90962 14.6099C3.30683 13.5244 3.0625 12.024 3.0625 9.99999C3.0625 4.58332 4.8125 2.91666 10.5 2.91666C16.1875 2.91666 17.9375 4.58332 17.9375 9.99999C17.9375 10.7288 17.9058 11.3897 17.8371 11.9877M3.90962 14.6099L6.63757 12.0118C7.32098 11.361 8.42902 11.361 9.11244 12.0118L9.26257 12.1548C9.94598 12.8057 11.054 12.8057 11.7374 12.1548L13.6376 10.3452C14.321 9.6943 15.429 9.6943 16.1124 10.3452L17.8371 11.9877M9.35462 7.37166C9.35462 8.22082 8.631 8.90999 7.73938 8.90999C6.84863 8.90999 6.125 8.22082 6.125 7.37166C6.125 6.52249 6.84863 5.83332 7.73938 5.83332C8.631 5.83332 9.35462 6.52249 9.35462 7.37166Z" stroke="#001B79" stroke-width="1.5" stroke-linecap="round" stroke-linejoin="round"/>
</g>
</svg>
