<svg width="24" height="24" viewBox="0 0 24 24" fill="none" xmlns="http://www.w3.org/2000/svg">
<g id="microphone-svgrepo-com 1">
<path id="Vector" d="M18.524 9.99788V11.6526C18.5249 13.399 17.8378 15.0753 16.6116 16.3187C16.0192 16.9225 15.3152 17.4055 14.5387 17.741C13.9534 17.9939 13.3335 18.1574 12.6996 18.2261V20.6248H15.62C15.8056 20.6248 15.9836 20.6986 16.1148 20.8298C16.2461 20.961 16.3198 21.139 16.3198 21.3246C16.3198 21.5102 16.2461 21.6882 16.1148 21.8194C15.9836 21.9507 15.8056 22.0244 15.62 22.0244H8.37959C8.19399 22.0244 8.016 21.9507 7.88476 21.8194C7.75353 21.6882 7.6798 21.5102 7.6798 21.3246C7.6798 21.139 7.75353 20.961 7.88476 20.8298C8.016 20.6986 8.19399 20.6248 8.37959 20.6248H11.3V18.2261C10.6661 18.1573 10.0462 17.9938 9.46085 17.741C8.68437 17.4055 7.98041 16.9225 7.38801 16.3187C6.16147 15.075 5.47437 13.3981 5.47559 11.6514V9.99662C5.47559 9.90464 5.4937 9.81356 5.5289 9.72858C5.5641 9.6436 5.6157 9.56639 5.68074 9.50135C5.74578 9.43631 5.82299 9.38472 5.90797 9.34952C5.99295 9.31432 6.08403 9.2962 6.17601 9.2962C6.26799 9.2962 6.35907 9.31432 6.44405 9.34952C6.52903 9.38472 6.60624 9.43631 6.67128 9.50135C6.73632 9.56639 6.78791 9.6436 6.82311 9.72858C6.85831 9.81356 6.87643 9.90464 6.87643 9.99662V11.6514C6.87277 13.0308 7.41549 14.3556 8.3859 15.336C8.85552 15.8193 9.41732 16.2036 10.0381 16.4659C10.6588 16.7283 11.3259 16.8635 11.9998 16.8635C12.6737 16.8635 13.3408 16.7283 13.9615 16.4659C14.5823 16.2036 15.1441 15.8193 15.6137 15.336C16.5839 14.3554 17.1265 13.0308 17.1232 11.6514V9.99662C17.1232 9.81086 17.197 9.6327 17.3283 9.50135C17.4597 9.36999 17.6378 9.2962 17.8236 9.2962C18.0094 9.2962 18.1875 9.36999 18.3189 9.50135C18.4502 9.6327 18.524 9.81212 18.524 9.99788ZM8.55138 13.0989C8.35513 12.6417 8.25496 12.149 8.25706 11.6514V5.98483C8.25396 5.48224 8.35413 4.98437 8.55138 4.52209C8.93515 3.61755 9.65526 2.89744 10.5598 2.51367C11.022 2.31633 11.5199 2.21615 12.0225 2.21936C12.5227 2.21585 13.0182 2.31606 13.4777 2.51367C14.1538 2.80672 14.7289 3.29194 15.1315 3.90906C15.5342 4.52617 15.7466 5.24799 15.7425 5.98483L15.7274 11.6526C15.7303 12.641 15.3415 13.5903 14.6461 14.2926C14.3055 14.6316 13.9039 14.9033 13.4625 15.0935C13.003 15.2911 12.5076 15.3913 12.0074 15.3878C11.5048 15.3909 11.0069 15.2907 10.5446 15.0935C9.64514 14.7146 8.92968 13.9987 8.55138 13.0989Z" fill="#ED5AB3"/>
</g>
</svg>
