<svg width="20" height="20" viewBox="0 0 20 20" fill="none" xmlns="http://www.w3.org/2000/svg">
<g id="curved / phone-call">
<path id="shape" d="M12.5 2.5C13.7763 2.64178 14.9247 3.25922 15.8333 4.16667C16.7419 5.07411 17.3566 6.2239 17.5 7.5M12.0833 5.41667C12.6976 5.53652 13.3074 5.80743 13.75 6.25C14.1925 6.69256 14.4635 7.30237 14.5833 7.91667M6.83372 13.1658C1.0854 7.41685 1.9028 4.78429 2.50877 3.93596C2.58662 3.79885 4.50538 0.926565 6.56214 2.61172C11.6673 6.81621 5.41665 6.66667 9.49114 10.5094C13.5656 14.3521 13.1845 8.33329 17.3882 13.4374C19.0734 15.495 16.2011 17.4137 16.0648 17.4906C15.2165 18.0975 12.5829 18.9148 6.83372 13.1658Z" stroke="#001A72" stroke-width="1.5" stroke-linecap="round" stroke-linejoin="round"/>
</g>
</svg>
