<svg width="30" height="30" viewBox="0 0 30 30" fill="none" xmlns="http://www.w3.org/2000/svg">
<g id="product-guide-svgrepo-com 1">
<path id="Vector" d="M25.2804 27.3099H4.77441C3.64008 27.3099 2.71997 26.3898 2.71997 25.2555V12.6707C2.71997 11.5363 3.64008 10.6162 4.77441 10.6162H25.2804C26.4147 10.6162 27.3348 11.5363 27.3348 12.6707V25.2555C27.3348 26.3898 26.4147 27.3099 25.2804 27.3099Z" fill="#00AAFF"/>
<path id="Vector_2" d="M22.9706 6.66699H7.02948C6.07916 6.66699 5.30737 7.43878 5.30737 8.3891V9.73492H24.6927V8.3891C24.6927 7.43604 23.921 6.66699 22.9706 6.66699Z" fill="#FC592D"/>
<path id="Vector_3" d="M21.1305 2.67627H8.98236C8.03204 2.67627 7.26025 3.44806 7.26025 4.39838V5.7442H22.8553V4.39838C22.8526 3.44806 22.0836 2.67627 21.1305 2.67627Z" fill="#FFCE00"/>
</g>
</svg>
