<svg width="17" height="17" viewBox="0 0 17 17" fill="none" xmlns="http://www.w3.org/2000/svg">
<g id="curved / share-1">
<path id="shape" d="M6.04007 7.4126L10.6499 5.10766M10.6522 11.5857L6.0466 9.28289M14.6057 4.17305C14.6057 5.32541 13.6715 6.25958 12.5192 6.25958C11.3668 6.25958 10.4326 5.32541 10.4326 4.17305C10.4326 3.02069 11.3668 2.08652 12.5192 2.08652C13.6715 2.08652 14.6057 3.02069 14.6057 4.17305ZM6.25958 8.34611C6.25958 9.49847 5.32541 10.4326 4.17305 10.4326C3.02069 10.4326 2.08652 9.49847 2.08652 8.34611C2.08652 7.19375 3.02069 6.25958 4.17305 6.25958C5.32541 6.25958 6.25958 7.19375 6.25958 8.34611ZM14.6057 12.5192C14.6057 13.6715 13.6715 14.6057 12.5192 14.6057C11.3668 14.6057 10.4326 13.6715 10.4326 12.5192C10.4326 11.3668 11.3668 10.4326 12.5192 10.4326C13.6715 10.4326 14.6057 11.3668 14.6057 12.5192Z" stroke="#001A72" stroke-width="1.5"/>
</g>
</svg>
