<svg width="50" height="75" viewBox="0 0 50 75" fill="none" xmlns="http://www.w3.org/2000/svg">
<g id="SVG" clip-path="url(#clip0_947_9570)">
<g id="Clip path group">
<mask id="mask0_947_9570" style="mask-type:luminance" maskUnits="userSpaceOnUse" x="0" y="0" width="50" height="75">
<g id="__lottie_element_3">
<path id="Vector" d="M50 0H0V75H50V0Z" fill="white"/>
</g>
</mask>
<g mask="url(#mask0_947_9570)">
<g id="Group">
<g id="Group_2">
<g id="Group_3">
<path id="Vector_2" d="M33.4487 49.2123C33.9305 49.6138 33.993 50.3288 33.5883 50.8078C33.1835 51.2869 32.4637 51.3499 31.9819 50.9484C31.5001 50.5469 31.4375 49.8319 31.8423 49.3529C32.247 48.8738 32.9669 48.8108 33.4487 49.2123Z" stroke="black" stroke-width="0.460293"/>
</g>
</g>
<g id="Group_4">
<g id="Group_5">
<path id="Vector_3" d="M26.8061 62.3636C26.9667 62.4974 26.9876 62.7357 26.8527 62.8954C26.7177 63.0551 26.4778 63.0761 26.3172 62.9423C26.1566 62.8084 26.1357 62.5701 26.2707 62.4104C26.4056 62.2507 26.6455 62.2298 26.8061 62.3636Z" stroke="black" stroke-width="0.265709"/>
</g>
</g>
<g id="Group_6">
<g id="Group_7">
<path id="Vector_4" d="M32.1091 10.8484C32.2697 10.9823 32.2906 11.2206 32.1556 11.3803C32.0207 11.54 31.7808 11.561 31.6202 11.4271C31.4596 11.2933 31.4387 11.055 31.5736 10.8953C31.7086 10.7356 31.9485 10.7146 32.1091 10.8484Z" stroke="black" stroke-width="0.265709"/>
</g>
</g>
<g id="Group_8">
<g id="Group_9">
<path id="Vector_5" d="M20.4546 22.7275H18.1819" stroke="black" stroke-width="0.460293" stroke-linecap="round"/>
</g>
<g id="Group_10">
<path id="Vector_6" d="M19.314 24.2427V21.9699" stroke="black" stroke-width="0.460293" stroke-linecap="round"/>
</g>
</g>
<g id="Group_11">
<g id="Group_12">
<path id="Vector_7" d="M41.0085 40.5488H38.8817" stroke="black" stroke-width="0.460293" stroke-linecap="round"/>
</g>
<g id="Group_13">
<path id="Vector_8" d="M39.9412 41.6108V39.4981" stroke="black" stroke-width="0.460293" stroke-linecap="round"/>
</g>
</g>
<g id="Group_14">
<g id="Group_15">
<path id="Vector_9" d="M50.7576 32.9136H49.1784" stroke="black" stroke-width="0.401708" stroke-linecap="round"/>
</g>
<g id="Group_16">
<path id="Vector_10" d="M49.9407 33.6055V32.1921" stroke="black" stroke-width="0.352784" stroke-linecap="round"/>
</g>
</g>
<g id="Group_17">
<g id="Group_18">
<path id="Vector_11" d="M10.6606 37.6821H9.0815" stroke="black" stroke-width="0.401708" stroke-linecap="round"/>
</g>
<g id="Group_19">
<path id="Vector_12" d="M9.84375 38.374V36.9607" stroke="black" stroke-width="0.352784" stroke-linecap="round"/>
</g>
</g>
<g id="Group_20">
<g id="Group_21">
<path id="Vector_13" d="M34.4531 25.4083C33.6866 25.41 23.4619 25.7252 16.6122 41.1726C16.5906 41.2213 16.6028 41.2786 16.6425 41.3143L20.7322 44.995C20.7721 45.0309 20.8311 45.0372 20.8778 45.0106C35.6087 36.6425 34.7853 26.4119 34.6977 25.6193C34.6942 25.5878 34.6787 25.5592 34.6543 25.5388L34.5331 25.4374C34.5106 25.4186 34.4825 25.4083 34.4531 25.4083Z" fill="#ED5AB3"/>
<path id="Vector_14" d="M34.4531 25.4083C33.6866 25.41 23.4619 25.7252 16.6122 41.1726C16.5906 41.2213 16.6028 41.2786 16.6425 41.3143L20.7322 44.995C20.7721 45.0309 20.8311 45.0372 20.8778 45.0106C35.6087 36.6425 34.7853 26.4119 34.6977 25.6193C34.6942 25.5878 34.6787 25.5592 34.6543 25.5388L34.5331 25.4374C34.5106 25.4186 34.4825 25.4083 34.4531 25.4083Z" stroke="black" stroke-width="0.575366" stroke-miterlimit="10"/>
</g>
<g id="Group_22">
<path id="Vector_15" d="M28.0095 27.4634C28.0095 27.4634 32.3768 28.4233 33.3815 32.311" stroke="black" stroke-width="0.575366" stroke-miterlimit="10"/>
</g>
</g>
<g id="Mask group">
<mask id="mask1_947_9570" style="mask-type:alpha" maskUnits="userSpaceOnUse" x="16" y="25" width="20" height="21">
<g id="Group_23">
<g id="__lottie_element_36">
<g id="Group_24">
<g id="Group_25">
<path id="Vector_16" d="M34.4529 25.4092C33.6864 25.4108 23.4626 25.7259 16.6138 41.1746C16.5922 41.2233 16.6044 41.2806 16.6441 41.3163L20.7335 44.9974C20.7734 45.0333 20.8324 45.0396 20.8791 45.013C35.6086 36.6445 34.7851 26.4128 34.6974 25.6202C34.6939 25.5887 34.6784 25.5601 34.6541 25.5397L34.5329 25.4382C34.5104 25.4194 34.4823 25.4091 34.4529 25.4092Z" fill="white"/>
<path id="Vector_17" d="M34.4529 25.4092C33.6864 25.4108 23.4626 25.7259 16.6138 41.1746C16.5922 41.2233 16.6044 41.2806 16.6441 41.3163L20.7335 44.9974C20.7734 45.0333 20.8324 45.0396 20.8791 45.013C35.6086 36.6445 34.7851 26.4128 34.6974 25.6202C34.6939 25.5887 34.6784 25.5601 34.6541 25.5397L34.5329 25.4382C34.5104 25.4194 34.4823 25.4091 34.4529 25.4092Z" stroke="black" stroke-width="0.575366" stroke-miterlimit="10"/>
</g>
<g id="Group_26">
<path id="Vector_18" d="M28.0092 27.4634C28.0092 27.4634 32.3766 28.4233 33.3813 32.311" stroke="black" stroke-width="0.575366" stroke-miterlimit="10"/>
</g>
</g>
</g>
</g>
</mask>
<g mask="url(#mask1_947_9570)">
<g id="Group_27">
<g id="Group_28">
<g id="Group_29">
<path id="Vector_19" d="M18.6725 34.312C18.1835 34.8513 17.3467 34.8949 16.8037 34.4093C16.2606 33.9237 16.2168 33.0927 16.7058 32.5533C17.1949 32.0139 18.0316 31.9704 18.5747 32.456C19.1177 32.9416 19.1616 33.7725 18.6725 34.312Z" stroke="black" stroke-width="0.575366" stroke-miterlimit="10"/>
</g>
<g id="Group_30">
<path id="Vector_20" d="M23.0201 30.8939C22.1882 31.8117 20.7648 31.8859 19.8408 31.0596C18.9169 30.2332 18.8423 28.8193 19.6743 27.9015C20.5062 26.9837 21.9297 26.9096 22.8536 27.736C23.7776 28.5623 23.8521 29.9761 23.0201 30.8939Z" stroke="black" stroke-width="0.575366" stroke-miterlimit="10"/>
</g>
</g>
</g>
</g>
</g>
<g id="Mask group_2">
<mask id="mask2_947_9570" style="mask-type:alpha" maskUnits="userSpaceOnUse" x="16" y="25" width="20" height="21">
<g id="Group_31">
<g id="__lottie_element_42">
<g id="Group_32">
<g id="Group_33">
<path id="Vector_21" d="M34.4529 25.4092C33.6864 25.4108 23.4626 25.7259 16.6138 41.1746C16.5922 41.2233 16.6044 41.2806 16.6441 41.3163L20.7335 44.9974C20.7734 45.0333 20.8324 45.0396 20.8791 45.013C35.6086 36.6445 34.7851 26.4128 34.6974 25.6202C34.6939 25.5887 34.6784 25.5601 34.6541 25.5397L34.5329 25.4382C34.5104 25.4194 34.4823 25.4091 34.4529 25.4092Z" fill="white"/>
<path id="Vector_22" d="M34.4529 25.4092C33.6864 25.4108 23.4626 25.7259 16.6138 41.1746C16.5922 41.2233 16.6044 41.2806 16.6441 41.3163L20.7335 44.9974C20.7734 45.0333 20.8324 45.0396 20.8791 45.013C35.6086 36.6445 34.7851 26.4128 34.6974 25.6202C34.6939 25.5887 34.6784 25.5601 34.6541 25.5397L34.5329 25.4382C34.5104 25.4194 34.4823 25.4091 34.4529 25.4092Z" stroke="black" stroke-width="0.575366" stroke-miterlimit="10"/>
</g>
<g id="Group_34">
<path id="Vector_23" d="M28.0092 27.4634C28.0092 27.4634 32.3766 28.4233 33.3813 32.311" stroke="black" stroke-width="0.575366" stroke-miterlimit="10"/>
</g>
</g>
</g>
</g>
</mask>
<g mask="url(#mask2_947_9570)">
<g id="Group_35">
<g id="Group_36">
<g id="Group_37">
<path id="Vector_24" d="M25.6535 40.5541C25.1644 41.0935 24.3277 41.1371 23.7846 40.6515C23.2415 40.1659 23.1977 39.3349 23.6868 38.7955C24.1758 38.2561 25.0125 38.2125 25.5556 38.6982C26.0987 39.1838 26.1425 40.0147 25.6535 40.5541Z" stroke="black" stroke-width="0.575366" stroke-miterlimit="10"/>
</g>
<g id="Group_38">
<path id="Vector_25" d="M30.0011 37.1361C29.1691 38.0539 27.7457 38.1281 26.8218 37.3017C25.8979 36.4754 25.8233 35.0615 26.6552 34.1437C27.4872 33.2259 28.9106 33.1518 29.8346 33.9782C30.7585 34.8045 30.8331 36.2183 30.0011 37.1361Z" stroke="black" stroke-width="0.575366" stroke-miterlimit="10"/>
</g>
</g>
</g>
</g>
</g>
<g id="Mask group_3">
<mask id="mask3_947_9570" style="mask-type:alpha" maskUnits="userSpaceOnUse" x="16" y="25" width="20" height="21">
<g id="Group_39">
<g id="Group_40">
<g id="__lottie_element_48">
<g id="Group_41">
<g id="Group_42">
<path id="Vector_26" d="M34.4529 25.4092C33.6864 25.4108 23.4626 25.7259 16.6138 41.1746C16.5922 41.2233 16.6044 41.2806 16.6441 41.3163L20.7335 44.9974C20.7734 45.0333 20.8324 45.0396 20.8791 45.013C35.6086 36.6445 34.7851 26.4128 34.6974 25.6202C34.6939 25.5887 34.6784 25.5601 34.6541 25.5397L34.5329 25.4382C34.5104 25.4194 34.4823 25.4091 34.4529 25.4092Z" fill="white"/>
<path id="Vector_27" d="M34.4529 25.4092C33.6864 25.4108 23.4626 25.7259 16.6138 41.1746C16.5922 41.2233 16.6044 41.2806 16.6441 41.3163L20.7335 44.9974C20.7734 45.0333 20.8324 45.0396 20.8791 45.013C35.6086 36.6445 34.7851 26.4128 34.6974 25.6202C34.6939 25.5887 34.6784 25.5601 34.6541 25.5397L34.5329 25.4382C34.5104 25.4194 34.4823 25.4091 34.4529 25.4092Z" stroke="black" stroke-width="0.575366" stroke-miterlimit="10"/>
</g>
<g id="Group_43">
<path id="Vector_28" d="M28.0092 27.4634C28.0092 27.4634 32.3766 28.4233 33.3813 32.311" stroke="black" stroke-width="0.575366" stroke-miterlimit="10"/>
</g>
</g>
</g>
</g>
</g>
</mask>
<g mask="url(#mask3_947_9570)">
<g id="Group_44">
<g id="Group_45">
<g id="Group_46">
<path id="Vector_29" d="M29.3443 36.1488C29.6348 38.0662 26.7101 42.8151 26.0604 43.8411C26.0081 43.9235 25.906 43.947 25.8827 43.8817C25.7276 43.448 25.1993 42.2155 23.9932 41.4816C23.9459 41.4528 23.9632 41.3673 24.0268 41.3133C26.0207 39.6191 28.2688 37.215 29.1794 36.1549C29.2415 36.0826 29.3337 36.079 29.3443 36.1488Z" fill="#ED5AB3"/>
<path id="Vector_30" d="M29.3443 36.1488C29.6348 38.0662 26.7101 42.8151 26.0604 43.8411C26.0081 43.9235 25.906 43.947 25.8827 43.8817C25.7276 43.448 25.1993 42.2155 23.9932 41.4816C23.9459 41.4528 23.9632 41.3673 24.0268 41.3133C26.0207 39.6191 28.2688 37.215 29.1794 36.1549C29.2415 36.0826 29.3337 36.079 29.3443 36.1488Z" stroke="black" stroke-width="0.575366" stroke-miterlimit="10"/>
</g>
</g>
</g>
</g>
</g>
<g id="Group_47">
<g id="Group_48">
<path id="Vector_31" d="M25.689 44.9175C25.0506 45.0473 24.2434 45.0957 23.5617 45.4514C22.0674 46.2309 20.2735 47.0557 18.8751 48.2063" stroke="black" stroke-width="0.575366" stroke-linecap="round"/>
</g>
</g>
<g id="Group_49">
<g id="Group_50">
<path id="Vector_32" d="M23.0526 29.3589C22.3459 30.0643 20.8818 31.515 19.7115 32.5372C19.1081 33.0676 17.9975 33.8383 16.6947 34.6152C16.2541 34.8187 15.8118 35.2403 15.416 35.7153" stroke="black" stroke-width="0.575366" stroke-linecap="round"/>
</g>
</g>
<g id="Group_51">
<g id="Group_52">
<path id="Vector_33" d="M18.1886 42.7093C16.8791 42.668 15.6505 42.2795 13.7692 44.2894C11.8879 46.2994 11.9969 49.1173 9.13677 52.2413" stroke="black" stroke-width="0.575366" stroke-linecap="round" stroke-linejoin="round"/>
</g>
</g>
<g id="Group_53">
<g id="Group_54">
<path id="Vector_34" d="M19.1669 43.5841C19.3451 44.8732 19.8626 46.046 18.0465 48.1142C16.2303 50.1824 13.397 50.3693 10.5675 53.5207" stroke="black" stroke-width="0.575366" stroke-linecap="round" stroke-linejoin="round"/>
</g>
</g>
<g id="Group_55">
<g id="Group_56">
<path id="Vector_35" d="M9.38303 53.4406C9.09594 53.7554 8.77425 54.1139 8.40963 54.5372" stroke="black" stroke-width="0.575366" stroke-linecap="round" stroke-linejoin="round"/>
</g>
</g>
<g id="Group_57">
<g id="Group_58">
<path id="Vector_36" d="M11.5925 50.9844C11.4767 51.1176 11.3577 51.2522 11.2354 51.389" stroke="black" stroke-width="0.575366" stroke-linecap="round" stroke-linejoin="round"/>
</g>
</g>
<g id="Group_59">
<g id="Group_60">
<path id="Vector_37" d="M18.2539 43.9398C18.2539 43.9398 19.248 46.2976 15.562 48.8692" stroke="black" stroke-width="0.575366" stroke-linecap="round" stroke-linejoin="round"/>
</g>
</g>
</g>
</g>
</g>
</g>
<defs>
<clipPath id="clip0_947_9570">
<rect width="50" height="75" fill="white"/>
</clipPath>
</defs>
</svg>
