<svg width="66" height="100" viewBox="0 0 66 100" fill="none" xmlns="http://www.w3.org/2000/svg">
<g id="SVG" clip-path="url(#clip0_713_632)">
<g id="Clip path group">
<mask id="mask0_713_632" style="mask-type:luminance" maskUnits="userSpaceOnUse" x="0" y="0" width="66" height="100">
<g id="__lottie_element_3">
<path id="Vector" d="M65.9975 0H0.00292969V99.06H65.9975V0Z" fill="white"/>
</g>
</mask>
<g mask="url(#mask0_713_632)">
<g id="Group">
<g id="Group_2">
<g id="Group_3">
<path id="Vector_2" d="M43.137 64.3871C43.6837 64.8457 43.7551 65.6619 43.2964 66.2085C42.8377 66.7551 42.0213 66.8265 41.4746 66.3679C40.9279 65.9092 40.8565 65.0931 41.3153 64.5464C41.774 63.9998 42.5904 63.9284 43.137 64.3871Z" stroke="black" stroke-width="0.460293"/>
</g>
</g>
<g id="Group_4">
<g id="Group_5">
<path id="Vector_3" d="M35.1988 82.1525C35.5144 82.4172 35.5556 82.8884 35.2908 83.2039C35.0259 83.5194 34.5547 83.5607 34.2391 83.2959C33.9235 83.0311 33.8823 82.56 34.1471 82.2445C34.4119 81.9289 34.8832 81.8877 35.1988 82.1525Z" stroke="black" stroke-width="0.265709"/>
</g>
</g>
<g id="Group_6">
<g id="Group_7">
<path id="Vector_4" d="M41.7183 14.4234C42.0339 14.6882 42.0751 15.1593 41.8103 15.4749C41.5455 15.7904 41.0742 15.8316 40.7586 15.5669C40.4431 15.3021 40.4018 14.831 40.6667 14.5154C40.9315 14.1999 41.4027 14.1587 41.7183 14.4234Z" stroke="black" stroke-width="0.265709"/>
</g>
</g>
<g id="Group_8">
<g id="Group_9">
<path id="Vector_5" d="M26.6133 30.1464H23.8228" stroke="black" stroke-width="0.460293" stroke-linecap="round"/>
</g>
<g id="Group_10">
<path id="Vector_6" d="M25.2129 31.5488V28.7583" stroke="black" stroke-width="0.460293" stroke-linecap="round"/>
</g>
</g>
<g id="Group_11">
<g id="Group_12">
<path id="Vector_7" d="M53.5352 53.5568H50.7446" stroke="black" stroke-width="0.460293" stroke-linecap="round"/>
</g>
<g id="Group_13">
<path id="Vector_8" d="M52.1348 54.9593V52.1687" stroke="black" stroke-width="0.460293" stroke-linecap="round"/>
</g>
</g>
<g id="Group_14">
<g id="Group_15">
<path id="Vector_9" d="M66.3252 43.4722H64.2533" stroke="black" stroke-width="0.401708" stroke-linecap="round"/>
</g>
<g id="Group_16">
<path id="Vector_10" d="M65.2529 44.3864V42.5196" stroke="black" stroke-width="0.352784" stroke-linecap="round"/>
</g>
</g>
<g id="Group_17">
<g id="Group_18">
<path id="Vector_11" d="M13.7197 49.7705H11.6478" stroke="black" stroke-width="0.401708" stroke-linecap="round"/>
</g>
<g id="Group_19">
<path id="Vector_12" d="M12.6475 50.6846V48.8179" stroke="black" stroke-width="0.352784" stroke-linecap="round"/>
</g>
</g>
<g id="Group_20">
<g id="Group_21">
<path id="Vector_13" d="M44.9345 33.5598C43.9289 33.562 30.5145 33.9779 21.5287 54.3808C21.5003 54.4451 21.5163 54.5208 21.5684 54.5679L26.9341 59.4296C26.9865 59.477 27.0638 59.4854 27.1252 59.4503C46.4511 48.3982 45.3704 34.8853 45.2554 33.8385C45.2508 33.7969 45.2304 33.7591 45.1985 33.7322L45.0395 33.5982C45.01 33.5734 44.9731 33.5597 44.9345 33.5598Z" fill="white"/>
<path id="Vector_14" d="M44.9345 33.5598C43.9289 33.562 30.5145 33.9779 21.5287 54.3808C21.5003 54.4451 21.5163 54.5208 21.5684 54.5679L26.9341 59.4296C26.9865 59.477 27.0638 59.4854 27.1252 59.4503C46.4511 48.3982 45.3704 34.8853 45.2554 33.8385C45.2508 33.7969 45.2304 33.7591 45.1985 33.7322L45.0395 33.5982C45.01 33.5734 44.9731 33.5597 44.9345 33.5598Z" stroke="black" stroke-width="0.575366" stroke-miterlimit="10"/>
</g>
<g id="Group_22">
<path id="Vector_15" d="M36.4806 36.274C36.4806 36.274 42.2105 37.542 43.5288 42.6771" stroke="black" stroke-width="0.575366" stroke-miterlimit="10"/>
</g>
</g>
<g id="Mask group">
<mask id="mask1_713_632" style="mask-type:alpha" maskUnits="userSpaceOnUse" x="21" y="33" width="25" height="27">
<g id="Group_23">
<g id="__lottie_element_36">
<g id="Group_24">
<g id="Group_25">
<path id="Vector_16" d="M44.9332 33.5603C43.9277 33.5624 30.5145 33.9781 21.5298 54.3828C21.5014 54.4471 21.5174 54.5227 21.5695 54.5699L26.9349 59.4321C26.9872 59.4796 27.0646 59.4879 27.1259 59.4528C46.45 48.4001 45.3691 34.8859 45.2541 33.839C45.2495 33.7974 45.2291 33.7596 45.1972 33.7327L45.0382 33.5987C45.0087 33.5738 44.9718 33.5602 44.9332 33.5603Z" fill="white"/>
<path id="Vector_17" d="M44.9332 33.5603C43.9277 33.5624 30.5145 33.9781 21.5298 54.3828C21.5014 54.4471 21.5174 54.5227 21.5695 54.5699L26.9349 59.4321C26.9872 59.4796 27.0646 59.4879 27.1259 59.4528C46.45 48.4001 45.3691 34.8859 45.2541 33.839C45.2495 33.7974 45.2291 33.7596 45.1972 33.7327L45.0382 33.5987C45.0087 33.5738 44.9718 33.5602 44.9332 33.5603Z" stroke="black" stroke-width="0.575366" stroke-miterlimit="10"/>
</g>
<g id="Group_26">
<path id="Vector_18" d="M36.4796 36.274C36.4796 36.274 42.2095 37.542 43.5278 42.6771" stroke="black" stroke-width="0.575366" stroke-miterlimit="10"/>
</g>
</g>
</g>
</g>
</mask>
<g mask="url(#mask1_713_632)">
<g id="Group_27">
<g id="Group_28">
<g id="Group_29">
<path id="Vector_19" d="M24.2312 45.3192C23.5896 46.0316 22.4918 46.0891 21.7793 45.4476C21.0667 44.8062 21.0092 43.7086 21.6508 42.9962C22.2924 42.2837 23.3902 42.2262 24.1027 42.8677C24.8152 43.5091 24.8728 44.6067 24.2312 45.3192Z" stroke="black" stroke-width="0.575366" stroke-miterlimit="10"/>
</g>
<g id="Group_30">
<path id="Vector_20" d="M29.9351 40.805C28.8436 42.0172 26.9761 42.1151 25.7639 41.0236C24.5516 39.9321 24.4537 38.0645 25.5452 36.8523C26.6367 35.6401 28.5042 35.5423 29.7165 36.6338C30.9287 37.7253 31.0266 39.5927 29.9351 40.805Z" stroke="black" stroke-width="0.575366" stroke-miterlimit="10"/>
</g>
</g>
</g>
</g>
</g>
<g id="Mask group_2">
<mask id="mask2_713_632" style="mask-type:alpha" maskUnits="userSpaceOnUse" x="21" y="33" width="25" height="27">
<g id="Group_31">
<g id="__lottie_element_42">
<g id="Group_32">
<g id="Group_33">
<path id="Vector_21" d="M44.9332 33.5603C43.9277 33.5624 30.5145 33.9781 21.5298 54.3828C21.5014 54.4471 21.5174 54.5227 21.5695 54.5699L26.9349 59.4321C26.9872 59.4796 27.0646 59.4879 27.1259 59.4528C46.45 48.4001 45.3691 34.8859 45.2541 33.839C45.2495 33.7974 45.2291 33.7596 45.1972 33.7327L45.0382 33.5987C45.0087 33.5738 44.9718 33.5602 44.9332 33.5603Z" fill="white"/>
<path id="Vector_22" d="M44.9332 33.5603C43.9277 33.5624 30.5145 33.9781 21.5298 54.3828C21.5014 54.4471 21.5174 54.5227 21.5695 54.5699L26.9349 59.4321C26.9872 59.4796 27.0646 59.4879 27.1259 59.4528C46.45 48.4001 45.3691 34.8859 45.2541 33.839C45.2495 33.7974 45.2291 33.7596 45.1972 33.7327L45.0382 33.5987C45.0087 33.5738 44.9718 33.5602 44.9332 33.5603Z" stroke="black" stroke-width="0.575366" stroke-miterlimit="10"/>
</g>
<g id="Group_34">
<path id="Vector_23" d="M36.4796 36.274C36.4796 36.274 42.2095 37.542 43.5278 42.6771" stroke="black" stroke-width="0.575366" stroke-miterlimit="10"/>
</g>
</g>
</g>
</g>
</mask>
<g mask="url(#mask2_713_632)">
<g id="Group_35">
<g id="Group_36">
<g id="Group_37">
<path id="Vector_24" d="M33.3894 53.5643C32.7478 54.2767 31.65 54.3342 30.9375 53.6928C30.2249 53.0513 30.1674 51.9537 30.809 51.2413C31.4506 50.5288 32.5484 50.4713 33.2609 51.1128C33.9734 51.7542 34.031 52.8518 33.3894 53.5643Z" stroke="black" stroke-width="0.575366" stroke-miterlimit="10"/>
</g>
<g id="Group_38">
<path id="Vector_25" d="M39.0933 49.0501C38.0018 50.2623 36.1343 50.3602 34.9221 49.2687C33.7098 48.1772 33.6119 46.3096 34.7034 45.0974C35.7949 43.8852 37.6624 43.7874 38.8747 44.8789C40.0869 45.9704 40.1848 47.8378 39.0933 49.0501Z" stroke="black" stroke-width="0.575366" stroke-miterlimit="10"/>
</g>
</g>
</g>
</g>
</g>
<g id="Mask group_3">
<mask id="mask3_713_632" style="mask-type:alpha" maskUnits="userSpaceOnUse" x="21" y="33" width="25" height="27">
<g id="Group_39">
<g id="Group_40">
<g id="__lottie_element_48">
<g id="Group_41">
<g id="Group_42">
<path id="Vector_26" d="M44.9332 33.5603C43.9277 33.5624 30.5145 33.9781 21.5298 54.3828C21.5014 54.4471 21.5174 54.5227 21.5695 54.5699L26.9349 59.4321C26.9872 59.4796 27.0646 59.4879 27.1259 59.4528C46.45 48.4001 45.3691 34.8859 45.2541 33.839C45.2495 33.7974 45.2291 33.7596 45.1972 33.7327L45.0382 33.5987C45.0087 33.5738 44.9718 33.5602 44.9332 33.5603Z" fill="white"/>
<path id="Vector_27" d="M44.9332 33.5603C43.9277 33.5624 30.5145 33.9781 21.5298 54.3828C21.5014 54.4471 21.5174 54.5227 21.5695 54.5699L26.9349 59.4321C26.9872 59.4796 27.0646 59.4879 27.1259 59.4528C46.45 48.4001 45.3691 34.8859 45.2541 33.839C45.2495 33.7974 45.2291 33.7596 45.1972 33.7327L45.0382 33.5987C45.0087 33.5738 44.9718 33.5602 44.9332 33.5603Z" stroke="black" stroke-width="0.575366" stroke-miterlimit="10"/>
</g>
<g id="Group_43">
<path id="Vector_28" d="M36.4796 36.274C36.4796 36.274 42.2095 37.542 43.5278 42.6771" stroke="black" stroke-width="0.575366" stroke-miterlimit="10"/>
</g>
</g>
</g>
</g>
</g>
</mask>
<g mask="url(#mask3_713_632)">
<g id="Group_44">
<g id="Group_45">
<g id="Group_46">
<path id="Vector_29" d="M38.2326 47.7452C38.6139 50.2779 34.7769 56.5505 33.9245 57.9056C33.856 58.0145 33.7219 58.0455 33.6913 57.9593C33.4879 57.3863 32.7947 55.7584 31.2123 54.7889C31.1501 54.7509 31.1729 54.638 31.2564 54.5666C33.8722 52.329 36.8217 49.1536 38.0163 47.7533C38.0978 47.6578 38.2188 47.6531 38.2326 47.7452Z" fill="white"/>
<path id="Vector_30" d="M38.2326 47.7452C38.6139 50.2779 34.7769 56.5505 33.9245 57.9056C33.856 58.0145 33.7219 58.0455 33.6913 57.9593C33.4879 57.3863 32.7947 55.7584 31.2123 54.7889C31.1501 54.7509 31.1729 54.638 31.2564 54.5666C33.8722 52.329 36.8217 49.1536 38.0163 47.7533C38.0978 47.6578 38.2188 47.6531 38.2326 47.7452Z" stroke="black" stroke-width="0.575366" stroke-miterlimit="10"/>
</g>
</g>
</g>
</g>
</g>
<g id="Group_47">
<g id="Group_48">
<path id="Vector_31" d="M33.4365 59.3267C32.599 59.4981 31.54 59.562 30.6456 60.0318C28.685 61.0614 26.3315 62.1507 24.4968 63.6704" stroke="black" stroke-width="0.575366" stroke-linecap="round"/>
</g>
</g>
<g id="Group_49">
<g id="Group_50">
<path id="Vector_32" d="M29.9774 38.7774C29.0502 39.7092 27.1293 41.6254 25.594 42.9755C24.8022 43.6761 23.3451 44.6939 21.6359 45.7201C21.0578 45.9889 20.4775 46.5457 19.9583 47.1732" stroke="black" stroke-width="0.575366" stroke-linecap="round"/>
</g>
</g>
<g id="Group_51">
<g id="Group_52">
<path id="Vector_33" d="M23.5965 56.4109C21.8785 56.3563 20.2666 55.8431 17.7983 58.4979C15.3301 61.1526 15.4732 64.8748 11.7208 69.001" stroke="black" stroke-width="0.575366" stroke-linecap="round" stroke-linejoin="round"/>
</g>
</g>
<g id="Group_53">
<g id="Group_54">
<path id="Vector_34" d="M24.88 57.5657C25.1139 59.2684 25.7929 60.8175 23.4102 63.5493C21.0275 66.2811 17.31 66.5278 13.5979 70.6903" stroke="black" stroke-width="0.575366" stroke-linecap="round" stroke-linejoin="round"/>
</g>
</g>
<g id="Group_55">
<g id="Group_56">
<path id="Vector_35" d="M12.0442 70.5844C11.6677 71 11.2458 71.4734 10.7676 72.0322" stroke="black" stroke-width="0.575366" stroke-linecap="round" stroke-linejoin="round"/>
</g>
</g>
<g id="Group_57">
<g id="Group_58">
<path id="Vector_36" d="M14.9424 67.3402C14.7904 67.5161 14.6344 67.6938 14.474 67.8745" stroke="black" stroke-width="0.575366" stroke-linecap="round" stroke-linejoin="round"/>
</g>
</g>
<g id="Group_59">
<g id="Group_60">
<path id="Vector_37" d="M23.6817 58.0356C23.6817 58.0356 24.9861 61.1499 20.1502 64.5465" stroke="black" stroke-width="0.575366" stroke-linecap="round" stroke-linejoin="round"/>
</g>
</g>
</g>
</g>
</g>
</g>
<defs>
<clipPath id="clip0_713_632">
<rect width="66" height="99.06" fill="white"/>
</clipPath>
</defs>
</svg>
